<?xml version="1.0" standalone="no"?>
<!DOCTYPE svg PUBLIC "-//W3C//DTD SVG 20010904//EN"
 "http://www.w3.org/TR/2001/REC-SVG-20010904/DTD/svg10.dtd">
<svg version="1.0" xmlns="http://www.w3.org/2000/svg"
 width="435.000000pt" height="420.000000pt" viewBox="0 0 435.000000 420.000000"
 preserveAspectRatio="xMidYMid meet">

<g transform="translate(0.000000,420.000000) scale(0.100000,-0.100000)"
fill="#000000" stroke="none">
<path d="M1995 3929 c-175 -18 -253 -30 -310 -44 -124 -32 -135 -36 -135 -46
0 -5 33 -24 73 -43 39 -18 109 -56 154 -84 80 -50 136 -76 261 -122 34 -12 65
-27 68 -31 11 -18 39 -7 148 58 61 38 188 107 281 155 193 98 190 88 37 128
-139 37 -384 49 -577 29z"/>
<path d="M2650 3725 c-58 -20 -173 -69 -257 -110 l-152 -74 113 -115 c62 -63
139 -150 171 -193 33 -43 116 -132 185 -198 69 -66 229 -224 355 -351 127
-128 256 -253 288 -278 97 -77 239 -168 247 -159 31 32 200 519 200 576 0 3
-48 26 -107 52 -126 55 -358 133 -493 165 -52 12 -103 30 -112 38 -43 36 -165
306 -253 557 -33 91 -47 121 -61 123 -11 1 -66 -14 -124 -33z"/>
<path d="M1406 3649 c-39 -84 -120 -329 -167 -499 -17 -63 -36 -120 -43 -127
-6 -6 -85 -39 -176 -74 -214 -80 -380 -151 -455 -193 -56 -32 -60 -36 -57 -67
1 -19 45 -122 97 -229 52 -107 97 -211 100 -231 12 -68 16 -67 121 17 107 85
292 261 498 474 72 74 196 200 277 280 80 80 172 177 206 215 76 88 223 286
223 301 0 13 -81 37 -180 54 -41 7 -117 36 -204 77 -77 36 -155 67 -173 70
-33 6 -33 5 -67 -68z"/>
<path d="M3195 3621 c-86 -22 -155 -90 -155 -153 0 -45 31 -142 67 -213 20
-38 43 -82 50 -97 10 -19 27 -31 56 -38 23 -6 90 -28 148 -48 l106 -36 42 19
c89 40 133 127 112 221 -19 82 -60 153 -130 225 -99 99 -206 143 -296 120z"/>
<path d="M963 3539 c-49 -15 -152 -77 -200 -122 -24 -22 -57 -69 -75 -105 -27
-54 -32 -76 -32 -131 1 -71 23 -129 64 -166 l22 -20 96 35 c53 18 135 43 182
54 l84 21 28 100 c16 55 36 133 44 174 15 71 15 75 -4 100 -41 55 -136 83
-209 60z"/>
<path d="M2128 3065 c-2 -3 -79 -9 -171 -14 -185 -10 -209 -18 -263 -89 -16
-20 -126 -136 -245 -257 -119 -121 -223 -234 -233 -252 -20 -40 -21 -173 -5
-488 l12 -220 207 -210 c113 -115 232 -243 264 -282 32 -40 61 -73 65 -74 3 0
164 -1 356 -2 270 -1 359 2 390 12 30 11 89 62 231 200 105 102 235 227 289
277 l98 90 -6 100 c-4 54 -11 204 -16 333 -5 129 -13 264 -16 300 l-7 66 -246
244 c-136 134 -261 250 -279 257 -24 10 -85 14 -226 14 -107 0 -196 -2 -199
-5z"/>
<path d="M3904 2684 c-65 -157 -197 -428 -248 -509 -29 -47 -26 -56 44 -131
56 -60 71 -87 164 -303 39 -90 76 -163 81 -163 44 2 79 675 46 887 -16 103
-49 237 -61 249 -6 6 -16 -5 -26 -30z"/>
<path d="M366 2588 c-26 -90 -38 -657 -17 -793 21 -135 75 -335 90 -335 4 0
33 66 65 148 32 81 92 215 132 299 41 83 74 154 74 156 0 3 -25 36 -56 74 -31
37 -81 118 -111 178 -69 138 -156 295 -164 295 -4 0 -10 -10 -13 -22z"/>
<path d="M3490 2011 c-47 -37 -130 -114 -185 -171 -112 -115 -508 -506 -599
-590 -81 -76 -205 -221 -326 -380 l-102 -135 84 -38 c91 -43 299 -114 428
-148 79 -20 82 -20 96 -2 56 71 138 298 195 538 18 77 36 145 41 152 5 6 19
14 32 17 41 10 434 174 553 231 128 61 118 41 86 170 -17 70 -73 210 -110 275
-62 110 -88 150 -98 150 -5 0 -48 -31 -95 -69z"/>
<path d="M697 1848 c-25 -57 -55 -128 -67 -158 -21 -54 -93 -320 -88 -325 2
-2 55 -25 119 -53 121 -53 238 -91 457 -152 l134 -36 79 -195 c86 -209 218
-499 228 -499 5 0 449 180 520 211 23 10 20 14 -106 142 -71 73 -179 193 -238
267 -141 175 -464 496 -694 689 -80 66 -278 211 -291 211 -4 0 -27 -46 -53
-102z"/>
<path d="M3465 1245 c-44 -16 -194 -60 -236 -69 -20 -4 -30 -16 -42 -48 -8
-24 -25 -71 -38 -105 -22 -56 -22 -66 -11 -119 21 -102 96 -194 158 -194 13 0
53 16 88 36 120 66 218 199 246 336 28 142 -39 208 -165 163z"/>
<path d="M817 1100 c-57 -45 -97 -163 -78 -228 15 -50 119 -181 161 -201 19
-10 60 -26 91 -36 56 -17 58 -17 105 5 58 25 96 59 135 119 38 60 37 95 -8
214 -28 74 -42 99 -57 102 -29 7 -221 36 -276 42 -36 4 -50 1 -73 -17z"/>
<path d="M2169 652 c-78 -50 -392 -229 -451 -258 -32 -15 -58 -32 -58 -36 0
-19 261 -77 395 -86 139 -11 256 3 503 59 125 28 233 53 240 55 19 6 14 22
-10 30 -13 3 -65 31 -116 62 -51 30 -155 79 -232 108 -77 29 -157 62 -179 74
-22 11 -42 20 -44 20 -2 0 -23 -13 -48 -28z"/>
</g>
</svg>
