<?xml version="1.0"?>
<svg xmlns="http://www.w3.org/2000/svg" xmlns:xlink="http://www.w3.org/1999/xlink" xmlns:svgjs="http://svgjs.com/svgjs" version="1.1" width="512" height="512" x="0" y="0" viewBox="0 0 512 512" style="enable-background:new 0 0 512 512" xml:space="preserve" class=""><g><g xmlns="http://www.w3.org/2000/svg"><path d="m429.496 375.846c-8.5-8.499-19.8-13.18-31.819-13.18-.111 0-.222.007-.333.008v-143.674c0-53.191-32.362-98.962-78.429-118.669 15.002-13.722 24.429-33.445 24.429-55.331v-30c0-8.284-6.716-15-15-15h-120c-8.284 0-15 6.716-15 15v30c0 21.886 9.427 41.609 24.429 55.332-46.067 19.706-78.429 65.477-78.429 118.668v143h-55c-8.284 0-15 6.716-15 15v120c0 8.284 6.716 15 15 15h254c12.021 0 23.321-4.681 31.82-13.18l59.333-59.334c17.545-17.546 17.545-46.094-.001-63.64zm-206.152-330.846v-15h90v15c0 24.813-20.187 45-45 45s-45-20.187-45-45zm-54 174c0-54.589 44.411-99 99-99s99 44.411 99 99v155.431c-.503.461-1.001.93-1.487 1.416l-46.153 46.153h-12.931c1.664-4.694 2.57-9.743 2.57-15 0-24.813-20.187-45-45-45h-95v-143zm-70 173h40v90h-40zm308.94 26.273-59.333 59.334c-2.833 2.833-6.6 4.393-10.606 4.393h-169v-90h95c8.271 0 15 6.729 15 15s-6.729 15-15 15h-30c-8.284 0-15 6.716-15 15s6.716 15 15 15h91.574c3.978 0 7.793-1.58 10.607-4.394l50.546-50.546c2.833-2.833 6.6-4.394 10.607-4.394 4.006 0 7.773 1.56 10.606 4.393 5.847 5.849 5.847 15.366-.001 21.214z" fill="#004b85" data-original="#000000" style=""/><path d="m283.344 317v-1.511c17.483-4.285 30.994-17.295 33.983-34.036 2.779-15.564-4.204-35.865-32.136-46.169-12.864-4.745-24.86-9.907-28.827-11.64-2.023-1.739-2.056-4.038-1.87-5.329.227-1.579 1.398-5.446 7.367-7.243 11.982-3.61 21.766 1.514 27.862 6.448l.248.2c6.459 5.188 15.9 4.158 21.088-2.301s4.157-15.9-2.301-21.088l-.163-.132c-7.735-6.26-16.336-10.52-25.251-12.671v-1.528c0-8.284-6.716-15-15-15s-15 6.716-15 15v2.307c-.045.014-.091.025-.136.039-15.381 4.634-26.267 16.783-28.409 31.706-2.016 14.041 4.073 27.549 15.889 35.252.663.432 1.358.811 2.08 1.133.621.277 15.401 6.856 32.042 12.994 3.359 1.239 14.222 5.82 12.985 12.749-.95 5.319-7.599 10.821-17.083 10.821-10.18 0-19.96-4.086-26.163-10.93-5.563-6.139-15.05-6.605-21.188-1.041-6.138 5.563-6.604 15.049-1.041 21.188 8.177 9.022 19.001 15.411 31.024 18.557v2.225c0 8.284 6.716 15 15 15s15-6.716 15-15z" fill="#004b85" data-original="#000000" style=""/></g></g></svg>
