<?xml version="1.0"?>
<svg xmlns="http://www.w3.org/2000/svg" xmlns:xlink="http://www.w3.org/1999/xlink" xmlns:svgjs="http://svgjs.com/svgjs" version="1.1" width="512" height="512" x="0" y="0" viewBox="0 0 512 512" style="enable-background:new 0 0 512 512" xml:space="preserve" class=""><g><g xmlns="http://www.w3.org/2000/svg"><path d="m71.841 377v120c0 8.284 6.716 15 15 15h35v-150h-35c-8.285 0-15 6.716-15 15z" fill="#ffffff" data-original="#000000" style=""/><path d="m346.038 74.75c6.226-10.927 9.803-23.55 9.803-37v-22.75c0-8.284-6.716-15-15-15h-120c-8.284 0-15 6.716-15 15v22.75c0 13.45 3.576 26.073 9.802 37z" fill="#ffffff" data-original="#000000" style=""/><path d="m431.387 401.453c-5.666-5.666-13.2-8.787-21.213-8.787s-15.547 3.12-21.214 8.787l-50.546 50.547h-61.573s-26.153 0-30 0c-8.284 0-15-6.716-15-15s6.716-15 15-15h30c16.542 0 30-13.458 30-30s-13.458-30-30-30h-125v150h199c8.013 0 15.547-3.121 21.213-8.787l59.334-59.334c11.696-11.697 11.695-30.729-.001-42.426z" fill="#ffffff" data-original="#000000" style=""/><path d="m336.841 391.995.005.005h9.569c5.265 0 14.346-4.773 20.18-10.606l16.32-16.32 16.32-16.32c5.834-5.834 10.606-17.356 10.606-25.606v-104.148c0-44.496-22.646-91.051-57.017-114.249-.001 0-.002-.001-.003-.001h-143.961c-.001 0-.002.001-.003.001-34.37 23.198-57.016 69.753-57.016 114.249v112.995l.005.005h124.995c33.082 0 59.997 26.913 60 59.995zm-71-105.643v-1.824c-.001-.002-.002-.003-.003-.005-12.023-3.147-22.845-9.535-31.021-18.556-5.564-6.138-5.098-15.624 1.041-21.188 6.137-5.563 15.624-5.098 21.187 1.041 6.203 6.844 15.983 10.93 26.163 10.93 9.483 0 16.133-5.502 17.083-10.821 1.237-6.929-9.626-11.51-12.985-12.749-16.641-6.138-31.42-12.717-32.041-12.994-.723-.322-1.418-.701-2.081-1.133-11.815-7.703-17.904-21.211-15.889-35.252 2.143-14.923 13.028-27.072 28.409-31.706.046-.014.091-.024.137-.038v-1.91c0-7.702 5.642-14.462 13.298-15.304 9.046-.996 16.702 6.061 16.702 14.906v1.727c.001.002.002.003.004.005 12.45 3.124 21.57 9.552 25.162 12.403 6.6 5.008 7.85 14.389 2.842 20.988-5.009 6.599-14.457 7.859-21.056 2.851-.09-.069-.236-.182-.436-.34-2.66-2.111-11.009-7.957-21.332-7.643-.063.001-.122.009-.185.009-.015 0-.029-.002-.044-.002-2.079.081-4.233.409-6.44 1.073-5.969 1.798-7.14 5.665-7.366 7.243-.185 1.291-.152 3.59 1.87 5.329 0 0 .001.001.001.001 3.967 1.734 15.963 6.895 28.826 11.64 27.933 10.303 34.915 30.605 32.137 46.169-2.989 16.74-16.499 29.75-33.98 34.035-.001.002-.002.003-.004.005v1.508c0 8.845-7.656 15.902-16.702 14.906-7.655-.843-13.297-7.602-13.297-15.304z" fill="#ffffff" data-original="#000000" style=""/></g></g></svg>
